<svg xmlns="http://www.w3.org/2000/svg" xmlns:v="https://svgstorm.com"
viewBox = "0 0 149 423"
width="149"
height="423">
<g fill="None" fill-opacity="0.0" stroke="#0B1716" stroke-opacity="0.00" stroke-width="0.3"><path d="
M 0.00 423.00 
L 149.00 423.00
L 149.00 0.00
L 0.00 0.00
L 0.00 423.00
M 93.00 22.00 
C 108.47 22.23 118.52 30.21 116.00 45.00 C 113.48 59.80 110.67 72.97 110.00 87.00 C 109.33 101.03 95.93 110.37 107.00 122.00
C 109.45 113.96 112.42 103.56 114.78 95.78 C 117.14 87.99 120.01 75.13 122.33 68.33 C 124.64 61.52 127.10 43.88 135.67 47.33 C 144.24 50.78 134.27 65.34 134.00 73.00 C 133.74 80.67 128.43 92.77 127.22 101.22 C 126.01 109.68 120.08 119.98 120.00 129.00
C 141.22 135.52 135.91 157.09 144.33 174.67 C 152.74 192.25 141.71 218.07 118.00 214.00
C 118.72 221.41 123.80 228.50 123.99 236.01 C 124.19 243.51 130.35 252.42 122.75 257.75 C 115.16 263.09 120.40 274.48 119.00 283.00 C 117.60 291.52 119.51 300.75 122.92 308.08 C 126.34 315.40 126.56 324.20 128.00 332.00 C 129.44 339.80 125.25 351.95 129.33 358.67 C 133.41 365.39 126.27 378.52 132.25 382.75 C 138.22 386.98 144.69 392.23 142.98 401.02 C 141.26 409.82 134.62 412.32 126.78 413.78 C 118.94 415.24 110.11 416.72 101.99 417.99 C 93.87 419.27 85.49 420.43 77.00 421.00 C 68.51 421.57 57.57 422.10 49.00 422.00 C 40.43 421.90 29.61 421.70 22.00 420.00 C 14.38 418.30 5.47 418.77 1.70 411.30 C -2.08 403.84 2.30 395.01 7.25 389.25 C 12.19 383.49 16.40 381.32 23.68 377.68 C 30.96 374.04 31.58 365.76 31.00 358.00 C 30.42 350.24 31.48 337.69 31.00 329.00 C 30.52 320.31 32.28 309.97 32.00 301.00 C 31.72 292.03 32.99 282.73 34.00 274.00
C 21.07 269.71 23.09 258.67 22.67 247.33 C 22.25 235.99 22.77 222.53 24.98 210.98 C 27.18 199.42 27.06 185.99 28.00 174.00 C 28.94 162.01 27.12 149.62 32.92 138.92 C 38.72 128.22 50.57 132.81 59.08 125.08 C 67.60 117.35 59.48 106.19 58.22 95.78 C 56.97 85.37 59.39 66.32 58.00 56.00 C 56.61 45.68 51.65 31.01 64.25 26.25 C 76.84 21.48 64.41 7.13 78.08 2.08 C 91.74 -2.98 97.34 12.06 93.00 22.00 Z"/>
</g>
<g fill="None" fill-opacity="0.0" stroke="#0B1716" stroke-opacity="0.99" stroke-width="0.3"><path d="
M 93.00 22.00 
C 97.34 12.06 91.74 -2.98 78.08 2.08 C 64.41 7.13 76.84 21.48 64.25 26.25 C 51.65 31.01 56.61 45.68 58.00 56.00 C 59.39 66.32 56.97 85.37 58.22 95.78 C 59.48 106.19 67.60 117.35 59.08 125.08 C 50.57 132.81 38.72 128.22 32.92 138.92 C 27.12 149.62 28.94 162.01 28.00 174.00 C 27.06 185.99 27.18 199.42 24.98 210.98 C 22.77 222.53 22.25 235.99 22.67 247.33 C 23.09 258.67 21.07 269.71 34.00 274.00
C 32.99 282.73 31.72 292.03 32.00 301.00 C 32.28 309.97 30.52 320.31 31.00 329.00 C 31.48 337.69 30.42 350.24 31.00 358.00 C 31.58 365.76 30.96 374.04 23.68 377.68 C 16.40 381.32 12.19 383.49 7.25 389.25 C 2.30 395.01 -2.08 403.84 1.70 411.30 C 5.47 418.77 14.38 418.30 22.00 420.00 C 29.61 421.70 40.43 421.90 49.00 422.00 C 57.57 422.10 68.51 421.57 77.00 421.00 C 85.49 420.43 93.87 419.27 101.99 417.99 C 110.11 416.72 118.94 415.24 126.78 413.78 C 134.62 412.32 141.26 409.82 142.98 401.02 C 144.69 392.23 138.22 386.98 132.25 382.75 C 126.27 378.52 133.41 365.39 129.33 358.67 C 125.25 351.95 129.44 339.80 128.00 332.00 C 126.56 324.20 126.34 315.40 122.92 308.08 C 119.51 300.75 117.60 291.52 119.00 283.00 C 120.40 274.48 115.16 263.09 122.75 257.75 C 130.35 252.42 124.19 243.51 123.99 236.01 C 123.80 228.50 118.72 221.41 118.00 214.00
C 141.71 218.07 152.74 192.25 144.33 174.67 C 135.91 157.09 141.22 135.52 120.00 129.00
C 120.08 119.98 126.01 109.68 127.22 101.22 C 128.43 92.77 133.74 80.67 134.00 73.00 C 134.27 65.34 144.24 50.78 135.67 47.33 C 127.10 43.88 124.64 61.52 122.33 68.33 C 120.01 75.13 117.14 87.99 114.78 95.78 C 112.42 103.56 109.45 113.96 107.00 122.00
C 95.93 110.37 109.33 101.03 110.00 87.00 C 110.67 72.97 113.48 59.80 116.00 45.00 C 118.52 30.21 108.47 22.23 93.00 22.00
M 78.00 272.00 
C 80.91 281.63 83.10 290.76 86.78 300.22 C 90.46 309.69 92.16 318.30 95.98 328.02 C 99.79 337.75 100.90 348.38 103.00 359.00 C 105.10 369.62 109.07 383.88 94.00 381.00 C 78.93 378.12 72.90 383.06 58.00 381.00
C 58.64 368.12 57.93 353.91 61.98 341.98 C 66.03 330.04 60.09 313.50 63.98 301.98 C 67.86 290.46 70.65 280.05 78.00 272.00 Z"/>
</g>
<g fill="None" fill-opacity="0.0" stroke="#0B1716" stroke-opacity="0.00" stroke-width="0.3"><path d="
M 78.00 272.00 
C 70.65 280.05 67.86 290.46 63.98 301.98 C 60.09 313.50 66.03 330.04 61.98 341.98 C 57.93 353.91 58.64 368.12 58.00 381.00
C 72.90 383.06 78.93 378.12 94.00 381.00 C 109.07 383.88 105.10 369.62 103.00 359.00 C 100.90 348.38 99.79 337.75 95.98 328.02 C 92.16 318.30 90.46 309.69 86.78 300.22 C 83.10 290.76 80.91 281.63 78.00 272.00 Z"/>
</g>
<g fill="#0B1716" fill-opacity="0.00" stroke="None">
<path d="
M 0.00 423.00 
L 149.00 423.00
L 149.00 0.00
L 0.00 0.00
L 0.00 423.00
M 93.00 22.00 
C 108.47 22.23 118.52 30.21 116.00 45.00 C 113.48 59.80 110.67 72.97 110.00 87.00 C 109.33 101.03 95.93 110.37 107.00 122.00
C 109.45 113.96 112.42 103.56 114.78 95.78 C 117.14 87.99 120.01 75.13 122.33 68.33 C 124.64 61.52 127.10 43.88 135.67 47.33 C 144.24 50.78 134.27 65.34 134.00 73.00 C 133.74 80.67 128.43 92.77 127.22 101.22 C 126.01 109.68 120.08 119.98 120.00 129.00
C 141.22 135.52 135.91 157.09 144.33 174.67 C 152.74 192.25 141.71 218.07 118.00 214.00
C 118.72 221.41 123.80 228.50 123.99 236.01 C 124.19 243.51 130.35 252.42 122.75 257.75 C 115.16 263.09 120.40 274.48 119.00 283.00 C 117.60 291.52 119.51 300.75 122.92 308.08 C 126.34 315.40 126.56 324.20 128.00 332.00 C 129.44 339.80 125.25 351.95 129.33 358.67 C 133.41 365.39 126.27 378.52 132.25 382.75 C 138.22 386.98 144.69 392.23 142.98 401.02 C 141.26 409.82 134.62 412.32 126.78 413.78 C 118.94 415.24 110.11 416.72 101.99 417.99 C 93.87 419.27 85.49 420.43 77.00 421.00 C 68.51 421.57 57.57 422.10 49.00 422.00 C 40.43 421.90 29.61 421.70 22.00 420.00 C 14.38 418.30 5.47 418.77 1.70 411.30 C -2.08 403.84 2.30 395.01 7.25 389.25 C 12.19 383.49 16.40 381.32 23.68 377.68 C 30.96 374.04 31.58 365.76 31.00 358.00 C 30.42 350.24 31.48 337.69 31.00 329.00 C 30.52 320.31 32.28 309.97 32.00 301.00 C 31.72 292.03 32.99 282.73 34.00 274.00
C 21.07 269.71 23.09 258.67 22.67 247.33 C 22.25 235.99 22.77 222.53 24.98 210.98 C 27.18 199.42 27.06 185.99 28.00 174.00 C 28.94 162.01 27.12 149.62 32.92 138.92 C 38.72 128.22 50.57 132.81 59.08 125.08 C 67.60 117.35 59.48 106.19 58.22 95.78 C 56.97 85.37 59.39 66.32 58.00 56.00 C 56.61 45.68 51.65 31.01 64.25 26.25 C 76.84 21.48 64.41 7.13 78.08 2.08 C 91.74 -2.98 97.34 12.06 93.00 22.00 Z"/>
</g>
<g fill="#0B1716" fill-opacity="0.99" stroke="None">
<path d="
M 93.00 22.00 
C 97.34 12.06 91.74 -2.98 78.08 2.08 C 64.41 7.13 76.84 21.48 64.25 26.25 C 51.65 31.01 56.61 45.68 58.00 56.00 C 59.39 66.32 56.97 85.37 58.22 95.78 C 59.48 106.19 67.60 117.35 59.08 125.08 C 50.57 132.81 38.72 128.22 32.92 138.92 C 27.12 149.62 28.94 162.01 28.00 174.00 C 27.06 185.99 27.18 199.42 24.98 210.98 C 22.77 222.53 22.25 235.99 22.67 247.33 C 23.09 258.67 21.07 269.71 34.00 274.00
C 32.99 282.73 31.72 292.03 32.00 301.00 C 32.28 309.97 30.52 320.31 31.00 329.00 C 31.48 337.69 30.42 350.24 31.00 358.00 C 31.58 365.76 30.96 374.04 23.68 377.68 C 16.40 381.32 12.19 383.49 7.25 389.25 C 2.30 395.01 -2.08 403.84 1.70 411.30 C 5.47 418.77 14.38 418.30 22.00 420.00 C 29.61 421.70 40.43 421.90 49.00 422.00 C 57.57 422.10 68.51 421.57 77.00 421.00 C 85.49 420.43 93.87 419.27 101.99 417.99 C 110.11 416.72 118.94 415.24 126.78 413.78 C 134.62 412.32 141.26 409.82 142.98 401.02 C 144.69 392.23 138.22 386.98 132.25 382.75 C 126.27 378.52 133.41 365.39 129.33 358.67 C 125.25 351.95 129.44 339.80 128.00 332.00 C 126.56 324.20 126.34 315.40 122.92 308.08 C 119.51 300.75 117.60 291.52 119.00 283.00 C 120.40 274.48 115.16 263.09 122.75 257.75 C 130.35 252.42 124.19 243.51 123.99 236.01 C 123.80 228.50 118.72 221.41 118.00 214.00
C 141.71 218.07 152.74 192.25 144.33 174.67 C 135.91 157.09 141.22 135.52 120.00 129.00
C 120.08 119.98 126.01 109.68 127.22 101.22 C 128.43 92.77 133.74 80.67 134.00 73.00 C 134.27 65.34 144.24 50.78 135.67 47.33 C 127.10 43.88 124.64 61.52 122.33 68.33 C 120.01 75.13 117.14 87.99 114.78 95.78 C 112.42 103.56 109.45 113.96 107.00 122.00
C 95.93 110.37 109.33 101.03 110.00 87.00 C 110.67 72.97 113.48 59.80 116.00 45.00 C 118.52 30.21 108.47 22.23 93.00 22.00
M 78.00 272.00 
C 80.91 281.63 83.10 290.76 86.78 300.22 C 90.46 309.69 92.16 318.30 95.98 328.02 C 99.79 337.75 100.90 348.38 103.00 359.00 C 105.10 369.62 109.07 383.88 94.00 381.00 C 78.93 378.12 72.90 383.06 58.00 381.00
C 58.64 368.12 57.93 353.91 61.98 341.98 C 66.03 330.04 60.09 313.50 63.98 301.98 C 67.86 290.46 70.65 280.05 78.00 272.00 Z"/>
</g>
<g fill="#0B1716" fill-opacity="0.00" stroke="None">
<path d="
M 78.00 272.00 
C 70.65 280.05 67.86 290.46 63.98 301.98 C 60.09 313.50 66.03 330.04 61.98 341.98 C 57.93 353.91 58.64 368.12 58.00 381.00
C 72.90 383.06 78.93 378.12 94.00 381.00 C 109.07 383.88 105.10 369.62 103.00 359.00 C 100.90 348.38 99.79 337.75 95.98 328.02 C 92.16 318.30 90.46 309.69 86.78 300.22 C 83.10 290.76 80.91 281.63 78.00 272.00 Z"/>
</g>
</svg>